<?xml version="1.0" encoding="UTF-8" standalone="no"?>
<svg width="291px" height="87px" viewBox="0 0 291 87" version="1.1" xmlns="http://www.w3.org/2000/svg" xmlns:xlink="http://www.w3.org/1999/xlink">
    <!-- Generator: Sketch 39.1 (31720) - http://www.bohemiancoding.com/sketch -->
    <title>Logo Copy</title>
    <desc>Created with Sketch.</desc>
    <defs>
        <polygon id="path-1" points="0 86.5107922 290.152254 86.5107922 290.152254 0.209391428 0 0.209391428"></polygon>
    </defs>
    <g id="Welcome" stroke="none" stroke-width="1" fill="none" fill-rule="evenodd">
        <g id="Front" transform="translate(-40.000000, -24.000000)">
            <g id="Navigation-Copy" transform="translate(40.000000, 24.000000)">
                <g id="Logo-Copy">
                    <polygon id="Fill-1" fill="#000713" points="145.690601 46.9903318 145.690601 43.3741807 142.944501 43.3741807 142.944501 46.9903318 140.415561 46.9903318 140.415561 37.8141851 142.944501 37.8141851 142.944501 41.1584451 145.690601 41.1584451 145.690601 37.8141851 148.218481 37.8141851 148.218481 46.9903318"></polygon>
                    <path d="M153.509976,42.3543421 C153.347194,41.8246842 153.183706,41.3349271 153.088721,40.7639559 L153.061532,40.7639559 C152.979612,41.29432 152.803412,41.9058984 152.613088,42.5040587 L152.299884,43.5104087 L153.877558,43.5104087 L153.509976,42.3543421 L153.509976,42.3543421 Z M154.991605,46.9902612 L154.515973,45.4948604 L151.688306,45.4948604 L151.226091,46.9902612 L148.724693,46.9902612 L151.715142,37.8141145 L154.611311,37.8141145 L157.751829,46.9902612 L154.991605,46.9902612 L154.991605,46.9902612 Z" id="Fill-2" fill="#000713"></path>
                    <path d="M166.97215,46.9903318 L166.468621,43.931734 C166.373989,43.3198025 166.279004,42.6400749 166.197083,41.8515908 L166.169894,41.8515908 C166.020884,42.6534929 165.843625,43.4147878 165.613047,44.2576501 L164.878941,46.9903318 L162.512783,46.9903318 L161.792801,44.5567303 C161.547746,43.7142211 161.316462,42.7760204 161.194641,41.8515908 L161.167099,41.8515908 C161.085532,42.7626024 160.990546,43.455748 160.895208,44.1492468 L160.514207,46.9903318 L157.971849,46.9903318 L159.494439,37.8141851 L162.350002,37.8141851 L163.314685,40.9953105 C163.505362,41.6340779 163.654726,42.2728454 163.804795,43.0754537 L163.831631,43.0754537 C163.96793,42.3003876 164.130358,41.674685 164.361995,40.9547034 L165.341156,37.8141851 L168.114092,37.8141851 L169.622558,46.9903318 L166.97215,46.9903318 Z" id="Fill-4" fill="#000713"></path>
                    <path d="M173.528467,39.8940458 L173.528467,39.8940458 C173.22974,39.8940458 173.07967,39.8940458 172.8897,39.9212349 L172.8897,44.828692 C172.998103,44.8558811 173.175362,44.8700053 173.473736,44.8700053 C174.602613,44.8700053 175.48573,44.0945861 175.48573,42.3816724 C175.48573,40.9544209 175.213839,39.8940458 173.528467,39.8940458 M173.269994,47.0581987 C172.277415,47.0581987 171.285542,47.0310096 170.361113,46.9769845 L170.361113,37.8414448 C171.081448,37.8001315 172.331793,37.7595244 173.664413,37.7595244 C176.342363,37.7595244 178.218411,38.8608597 178.218411,42.1779307 C178.218411,45.3180959 176.247731,47.0581987 173.269994,47.0581987" id="Fill-6" fill="#000713"></path>
                    <path d="M182.775694,42.3543421 L182.775694,42.3543421 C182.612912,41.8246842 182.449072,41.3349271 182.354439,40.7639559 L182.327603,40.7639559 C182.24533,41.29432 182.068777,41.9058984 181.878807,42.5040587 L181.565602,43.5104087 L183.142923,43.5104087 L182.775694,42.3543421 Z M184.257324,46.9902612 L183.781691,45.4948604 L180.954024,45.4948604 L180.491809,46.9902612 L177.990411,46.9902612 L180.98086,37.8141145 L183.877029,37.8141145 L187.017548,46.9902612 L184.257324,46.9902612 Z" id="Fill-8" fill="#000713"></path>
                    <path d="M192.322283,46.9903318 L190.785922,43.8498135 C190.431758,43.1298319 190.106548,42.3953729 189.874911,41.7834415 C189.929289,42.3275767 189.942707,42.6400749 189.942707,43.2385883 L189.942707,46.9903318 L187.509459,46.9903318 L187.509459,37.8141851 L190.744962,37.8141851 L192.077228,40.5465137 C192.471647,41.3621869 192.87913,42.1916312 193.192335,42.925737 C193.124185,42.3003876 193.096996,41.5934708 193.096996,41.0224996 L193.096996,37.8141851 L195.530598,37.8141851 L195.530598,46.9903318 L192.322283,46.9903318 Z" id="Fill-10" fill="#000713"></path>
                    <mask id="mask-2" fill="white">
                        <use xlink:href="#path-1"></use>
                    </mask>
                    <g id="Clip-13"></g>
                    <polygon id="Fill-12" fill="#000713" mask="url(#mask-2)" points="140.82368 65.009859 142.30531 65.009859 142.30531 55.8333591 140.82368 55.8333591"></polygon>
                    <path d="M150.21854,65.009859 L147.078022,59.7891975 C146.670538,59.1232409 146.343916,58.4707024 146.058607,57.8587709 C146.112985,58.7560114 146.140174,60.6186418 146.140174,61.9237189 L146.140174,65.009859 L144.699152,65.009859 L144.699152,55.8333591 L146.643349,55.8333591 L149.674758,60.8361546 C150.082948,61.5158823 150.450177,62.2499881 150.789864,62.9159447 C150.735486,61.8693406 150.694526,59.8979539 150.694526,58.5522697 L150.694526,55.8333591 L152.135549,55.8333591 L152.135549,65.009859 L150.21854,65.009859 Z" id="Fill-14" fill="#000713" mask="url(#mask-2)"></path>
                    <path d="M160.051922,65.009859 L156.911403,59.7891975 C156.503567,59.1232409 156.177298,58.4707024 155.891989,57.8587709 C155.94672,58.7560114 155.973556,60.6186418 155.973556,61.9237189 L155.973556,65.009859 L154.532886,65.009859 L154.532886,55.8333591 L156.476731,55.8333591 L159.50814,60.8361546 C159.915976,61.5158823 160.283206,62.2499881 160.623246,62.9159447 C160.568868,61.8693406 160.527555,59.8979539 160.527555,58.5522697 L160.527555,55.8333591 L161.96893,55.8333591 L161.96893,65.009859 L160.051922,65.009859 Z" id="Fill-15" fill="#000713" mask="url(#mask-2)"></path>
                    <path d="M167.831537,57.0026319 L167.831537,57.0026319 C166.417351,57.0026319 165.139109,58.1445743 165.139109,60.3468919 C165.139109,62.426682 165.996096,63.8267444 167.803995,63.8267444 C169.163097,63.8267444 170.523259,62.7388271 170.523259,60.4556484 C170.523259,58.2395597 169.544098,57.0026319 167.831537,57.0026319 M167.694885,65.1459457 C164.908532,65.1459457 163.562848,63.3376936 163.562848,60.5234446 C163.562848,57.4782647 165.546946,55.6975548 167.967483,55.6975548 C170.440985,55.6975548 172.099521,57.2339158 172.099521,60.3059317 C172.099521,63.3504054 170.12884,65.1459457 167.694885,65.1459457" id="Fill-16" fill="#000713" mask="url(#mask-2)"></path>
                    <path d="M177.268488,65.009859 L175.582763,65.009859 L172.32007,55.8333591 L173.95177,55.8333591 L175.882196,61.4886932 C176.071814,62.0190573 176.290033,62.6708896 176.466585,63.3506173 L176.48071,63.3506173 C176.643491,62.7118498 176.80592,62.1412317 177.07887,61.3937078 L179.049904,55.8333591 L180.572494,55.8333591 L177.268488,65.009859 Z" id="Fill-17" fill="#000713" mask="url(#mask-2)"></path>
                    <path d="M184.477273,58.9192167 L184.477273,58.9192167 C184.300367,58.4435839 184.178899,58.0085582 184.069789,57.5053832 L184.0426,57.5053832 C183.946909,57.9679511 183.797898,58.470773 183.62064,58.9601769 L182.58816,61.8012619 L185.524583,61.8012619 L184.477273,58.9192167 Z M186.625565,65.0099296 L185.918649,62.9838115 L182.206806,62.9838115 L181.500595,65.0099296 L180.004488,65.0099296 L183.29437,55.8334297 L184.939841,55.8334297 L188.27033,65.0099296 L186.625565,65.0099296 Z" id="Fill-18" fill="#000713" mask="url(#mask-2)"></path>
                    <polygon id="Fill-19" fill="#000713" mask="url(#mask-2)" points="191.576702 57.0839873 191.576702 65.0097883 190.095072 65.0097883 190.095072 57.0839873 187.57955 57.0839873 187.57955 55.8332885 194.105642 55.8332885 194.105642 57.0839873"></polygon>
                    <polygon id="Fill-20" fill="#000713" mask="url(#mask-2)" points="195.262979 65.009859 196.744609 65.009859 196.744609 55.8333591 195.262979 55.8333591"></polygon>
                    <path d="M202.605698,57.0026319 L202.605698,57.0026319 C201.191511,57.0026319 199.913623,58.1445743 199.913623,60.3468919 C199.913623,62.426682 200.770256,63.8267444 202.578155,63.8267444 C203.937258,63.8267444 205.297419,62.7388271 205.297419,60.4556484 C205.297419,58.2395597 204.318258,57.0026319 202.605698,57.0026319 M202.469046,65.1459457 C199.682692,65.1459457 198.337008,63.3376936 198.337008,60.5234446 C198.337008,57.4782647 200.321107,55.6975548 202.741643,55.6975548 C205.215499,55.6975548 206.874034,57.2339158 206.874034,60.3059317 C206.874034,63.3504054 204.903001,65.1459457 202.469046,65.1459457" id="Fill-21" fill="#000713" mask="url(#mask-2)"></path>
                    <path d="M213.973957,65.009859 L210.833792,59.7891975 C210.425602,59.1232409 210.099333,58.4707024 209.814024,57.8587709 C209.868755,58.7560114 209.895591,60.6186418 209.895591,61.9237189 L209.895591,65.009859 L208.454569,65.009859 L208.454569,55.8333591 L210.398766,55.8333591 L213.430528,60.8361546 C213.838012,61.5158823 214.205594,62.2499881 214.545282,62.9159447 C214.49055,61.8693406 214.449943,59.8979539 214.449943,58.5522697 L214.449943,55.8333591 L215.890966,55.8333591 L215.890966,65.009859 L213.973957,65.009859 Z" id="Fill-22" fill="#000713" mask="url(#mask-2)"></path>
                    <polygon id="Fill-23" fill="#000713" mask="url(#mask-2)" points="140.82368 83.028468 142.30531 83.028468 142.30531 73.8519681 140.82368 73.8519681"></polygon>
                    <path d="M150.21854,83.0285739 L147.078022,77.8082656 C146.670538,77.1426621 146.343916,76.4897705 146.058607,75.8781921 C146.112985,76.7761388 146.140174,78.6377098 146.140174,79.94314 L146.140174,83.0285739 L144.699152,83.0285739 L144.699152,73.8520741 L146.643349,73.8520741 L149.674758,78.8559289 C150.082948,79.5356566 150.450177,80.2690562 150.789864,80.935719 C150.735486,79.8880556 150.694526,77.917022 150.694526,76.572044 L150.694526,73.8520741 L152.135549,73.8520741 L152.135549,83.0285739 L150.21854,83.0285739 Z" id="Fill-24" fill="#000713" mask="url(#mask-2)"></path>
                    <path d="M157.998226,83.1374716 C154.926563,83.1374716 153.798039,81.1523137 153.798039,78.7056473 C153.798039,75.8511443 155.238708,73.770648 158.324495,73.770648 C159.004929,73.770648 159.711493,73.8797575 160.350967,74.029121 L160.187126,75.3882232 C159.521169,75.1844815 158.868984,75.075372 158.202674,75.075372 C156.285666,75.075372 155.415614,76.5435837 155.415614,78.4609453 C155.415614,80.5961729 156.326626,81.8052054 158.324495,81.8052054 C158.950198,81.8052054 159.752806,81.6279466 160.255275,81.3832446 L160.432181,82.702799 C159.738329,82.9746901 158.882402,83.1374716 157.998226,83.1374716" id="Fill-25" fill="#000713" mask="url(#mask-2)"></path>
                    <path d="M165.587483,83.1643782 C162.705437,83.1643782 162.093859,81.587057 162.093859,79.9020386 L162.093859,73.8519328 L163.575489,73.8519328 L163.575489,79.7932822 C163.575489,81.0164388 163.982972,81.9408684 165.682115,81.9408684 C167.178222,81.9408684 167.857949,81.315519 167.857949,79.6033115 L167.857949,73.8519328 L169.312743,73.8519328 L169.312743,79.4945551 C169.312743,81.9408684 167.993895,83.1643782 165.587483,83.1643782" id="Fill-26" fill="#000713" mask="url(#mask-2)"></path>
                    <path d="M173.949722,78.8559995 L173.949722,78.8559995 C173.800358,78.8559995 173.324725,78.8559995 173.12063,78.8687113 L173.12063,81.792423 C173.351208,81.8319708 173.718791,81.8602192 174.194777,81.8602192 C175.540461,81.8602192 176.179581,81.2076807 176.179581,80.283251 C176.179581,79.2352346 175.241734,78.8559995 173.949722,78.8559995 M174.275991,74.9947934 L174.275991,74.9947934 C173.868154,74.9947934 173.473736,75.0075051 173.12063,75.0216294 L173.12063,77.7401869 C173.365332,77.7543111 173.596616,77.7543111 173.909115,77.7543111 C175.281988,77.7543111 176.002676,77.1964047 176.002676,76.2719751 C176.002676,75.5244513 175.581421,74.9947934 174.275991,74.9947934 M174.140045,83.0696048 C173.582845,83.0696048 172.658416,83.0427688 171.639001,83.0286446 L171.639001,73.8521447 C172.359689,73.8387267 173.40594,73.8118907 174.521046,73.8118907 C176.519622,73.8118907 177.552455,74.6272108 177.552455,76.0410443 C177.552455,76.9799512 176.927458,77.8079831 175.989258,78.1349586 L175.989258,78.1621477 C177.185578,78.3927254 177.742779,79.3033839 177.742779,80.2560619 C177.742779,81.4513233 176.953941,83.0696048 174.140045,83.0696048" id="Fill-27" fill="#000713" mask="url(#mask-2)"></path>
                    <path d="M182.762205,76.9387085 L182.762205,76.9387085 C182.5853,76.4630757 182.463478,76.0269907 182.354369,75.5241688 L182.327533,75.5241688 C182.231841,75.9874429 182.082478,76.4899117 181.905572,76.9800218 L180.872739,79.8200475 L183.809162,79.8200475 L182.762205,76.9387085 Z M184.910145,83.0287152 L184.203581,81.0036564 L180.491738,81.0036564 L179.785175,83.0287152 L178.289421,83.0287152 L181.57895,73.8522153 L183.22442,73.8522153 L186.555262,83.0287152 L184.910145,83.0287152 Z" id="Fill-28" fill="#000713" mask="url(#mask-2)"></path>
                    <polygon id="Fill-29" fill="#000713" mask="url(#mask-2)" points="189.861281 75.1030201 189.861281 83.028468 188.379651 83.028468 188.379651 75.1030201 185.864129 75.1030201 185.864129 73.8519681 192.390221 73.8519681 192.390221 75.1030201"></polygon>
                    <path d="M196.864277,75.0216294 L196.864277,75.0216294 C195.450796,75.0216294 194.172908,76.1628656 194.172908,78.3658894 C194.172908,80.4460326 195.029542,81.8464481 196.837441,81.8464481 C198.196896,81.8464481 199.556704,80.7588839 199.556704,78.4749989 C199.556704,76.2592633 198.577543,75.0216294 196.864277,75.0216294 M196.728331,83.164237 C193.941977,83.164237 192.596293,81.356338 192.596293,78.5431483 C192.596293,75.4972622 194.580745,73.7161992 197.000928,73.7161992 C199.47549,73.7161992 201.133319,75.2525602 201.133319,78.3249292 C201.133319,81.3704622 199.162286,83.164237 196.728331,83.164237" id="Fill-30" fill="#000713" mask="url(#mask-2)"></path>
                    <path d="M204.970514,75.0075405 L204.970514,75.0075405 C204.684499,75.0075405 204.412608,75.0216647 204.195095,75.0350827 L204.195095,77.9439639 C204.331394,77.9580881 204.589514,77.9707999 204.915783,77.9707999 C206.112457,77.9707999 206.832085,77.3592216 206.832085,76.4489162 C206.832085,75.4429193 206.207089,75.0075405 204.970514,75.0075405 L204.970514,75.0075405 Z M207.118101,83.0286799 L204.262891,79.0597766 L204.195095,79.0597766 L204.195095,83.0286799 L202.713465,83.0286799 L202.713465,73.85218 C203.379775,73.8115729 204.140717,73.798508 205.174256,73.798508 C207.07714,73.798508 208.382571,74.4637583 208.382571,76.2861347 C208.382571,77.7543464 207.281235,78.6914878 205.785834,78.8560348 C206.044307,79.1815979 206.329617,79.5354094 206.560194,79.8344896 L208.980378,83.0286799 L207.118101,83.0286799 Z" id="Fill-31" fill="#000713" mask="url(#mask-2)"></path>
                    <path d="M239.41325,40.6960891 L239.41325,40.6960891 C240.011411,40.6960891 240.487397,41.1717219 240.487397,41.7702353 C240.487397,42.3542714 240.011411,42.8440285 239.41325,42.8440285 C238.814737,42.8440285 238.339457,42.3542714 238.339457,41.7702353 C238.339457,41.1717219 238.814737,40.6960891 239.41325,40.6960891 L239.41325,40.6960891 Z M243.750089,45.6173173 C243.750089,48.581283 242.472201,50.1172909 239.535778,50.1172909 C236.939042,50.1172909 235.661154,48.7712536 235.661154,46.1476814 C235.661154,45.5085609 235.770263,44.6791166 235.974005,43.9178216 L238.638537,43.4421888 C238.380417,44.2850511 238.244472,45.1551025 238.244472,45.9029795 C238.244472,47.6293111 238.951035,48.1049439 239.712684,48.1049439 C240.732098,48.1049439 241.166771,47.5615149 241.166771,45.7938699 L241.166771,40.6007507 L243.750089,40.6007507 L243.750089,45.6173173 Z" id="Fill-32" fill="#000713" mask="url(#mask-2)"></path>
                    <path d="M245.572466,39.3091975 C245.286803,39.2414013 245.083062,39.2004411 244.770563,39.173252 L244.770563,37.5009454 C245.979949,37.3791241 246.727473,37.3381639 248.155784,37.3791241 L248.155784,46.9902965 L245.572466,46.9902965 L245.572466,39.3091975 Z" id="Fill-33" fill="#000713" mask="url(#mask-2)"></path>
                    <path d="M249.311744,44.9783733 L252.859746,44.9783733 C252.724154,43.6595251 251.731222,42.5995031 249.977701,42.3138409 L250.576214,40.1793195 C253.295478,40.7368727 255.062417,42.1916665 255.347726,44.9783733 L255.877737,44.9783733 L255.877737,46.9903671 L249.311744,46.9903671 L249.311744,44.9783733 Z" id="Fill-34" fill="#000713" mask="url(#mask-2)"></path>
                    <polygon id="Fill-35" fill="#000713" mask="url(#mask-2)" points="255.674702 46.9905437 257.237899 46.9905437 257.237899 44.9785498 255.674702 44.9785498"></polygon>
                    <polygon id="Fill-36" fill="#000713" mask="url(#mask-2)" points="257.033804 46.9905437 258.597001 46.9905437 258.597001 44.9785498 257.033804 44.9785498"></polygon>
                    <polygon id="Fill-37" fill="#000713" mask="url(#mask-2)" points="258.393965 46.9905437 259.957162 46.9905437 259.957162 44.9785498 258.393965 44.9785498"></polygon>
                    <polygon id="Fill-38" fill="#000713" mask="url(#mask-2)" points="259.753067 46.9905437 261.316264 46.9905437 261.316264 44.9785498 259.753067 44.9785498"></polygon>
                    <polygon id="Fill-39" fill="#000713" mask="url(#mask-2)" points="261.113229 46.9905437 262.676426 46.9905437 262.676426 44.9785498 261.113229 44.9785498"></polygon>
                    <polygon id="Fill-40" fill="#000713" mask="url(#mask-2)" points="262.472331 46.9905437 264.035528 46.9905437 264.035528 44.9785498 262.472331 44.9785498"></polygon>
                    <path d="M269.418689,43.8637259 L269.418689,43.8637259 C269.418689,42.8986892 269.052165,42.4089321 268.46707,42.4089321 C267.787695,42.4089321 267.43459,42.9936745 267.43459,43.646213 C267.43459,44.5162644 267.896805,44.9784792 268.834653,44.9784792 L269.418689,44.9784792 L269.418689,43.8637259 Z M268.834653,46.9904731 C266.904226,46.9904731 266.42824,46.7048109 265.925065,46.2832032 C265.61292,46.7457711 265.177541,46.9904731 264.035599,46.9904731 L263.831857,46.9904731 C263.559966,46.9904731 263.016184,46.5826365 263.016184,45.9844762 C263.016184,45.3863158 263.559966,44.9784792 263.831857,44.9784792 L263.844922,44.9784792 C264.552545,44.9784792 264.892232,44.4887222 264.892232,43.6734021 C264.892232,41.9873244 266.115389,40.3969383 268.616787,40.3969383 C270.99601,40.3969383 271.92044,41.7835827 271.92044,43.6186708 L271.92044,44.9784792 L272.627356,44.9784792 L272.627356,46.9904731 L268.834653,46.9904731 Z" id="Fill-41" fill="#000713" mask="url(#mask-2)"></path>
                    <polygon id="Fill-42" fill="#000713" mask="url(#mask-2)" points="272.424603 46.9905437 273.9878 46.9905437 273.9878 44.9785498 272.424603 44.9785498"></polygon>
                    <polygon id="Fill-43" fill="#000713" mask="url(#mask-2)" points="273.784059 46.9905437 275.347256 46.9905437 275.347256 44.9785498 273.784059 44.9785498"></polygon>
                    <polygon id="Fill-44" fill="#000713" mask="url(#mask-2)" points="275.143867 46.9905437 276.707064 46.9905437 276.707064 44.9785498 275.143867 44.9785498"></polygon>
                    <polygon id="Fill-45" fill="#000713" mask="url(#mask-2)" points="276.503322 46.9905437 278.066166 46.9905437 278.066166 44.9785498 276.503322 44.9785498"></polygon>
                    <polygon id="Fill-46" fill="#000713" mask="url(#mask-2)" points="277.863131 46.9905437 279.426328 46.9905437 279.426328 44.9785498 277.863131 44.9785498"></polygon>
                    <polygon id="Fill-47" fill="#000713" mask="url(#mask-2)" points="279.222586 46.9905437 280.785783 46.9905437 280.785783 44.9785498 279.222586 44.9785498"></polygon>
                    <polygon id="Fill-48" fill="#000713" mask="url(#mask-2)" points="280.581688 46.9905437 282.144885 46.9905437 282.144885 44.9785498 280.581688 44.9785498"></polygon>
                    <polygon id="Fill-49" fill="#000713" mask="url(#mask-2)" points="281.941497 46.9905437 283.504694 46.9905437 283.504694 44.9785498 281.941497 44.9785498"></polygon>
                    <path d="M283.30074,46.9903318 C283.028849,46.9903318 282.485067,46.5824952 282.485067,45.9843349 C282.485067,45.3861746 283.028849,44.978338 283.30074,44.978338 L287.569783,44.978338 C287.583201,44.8561636 287.596619,44.6520687 287.596619,44.461745 C287.596619,43.2244641 286.958205,42.5041293 285.407719,42.5041293 C284.878061,42.5041293 284.510832,42.5585075 284.034846,42.6400749 L284.034846,40.628081 C284.660195,40.5327426 285.081803,40.4921355 285.666192,40.4921355 C288.806711,40.4921355 290.152395,41.7972126 290.152395,44.4211379 C290.152395,45.1414726 290.084599,46.0118771 289.921464,46.9903318 L283.30074,46.9903318 Z" id="Fill-50" fill="#000713" mask="url(#mask-2)"></path>
                    <path d="M232.996409,66.1524017 C232.996409,64.969499 233.93461,64.0584874 235.660942,63.2837744 C234.587149,63.2569384 233.567734,62.4681013 233.567734,61.1496062 C233.567734,59.5588669 234.736512,58.4306956 236.884452,58.4306956 C237.537343,58.4306956 238.16234,58.5938302 238.16234,58.5938302 L237.972016,59.7901509 C237.972016,59.7901509 237.401045,59.599474 236.816655,59.599474 C235.770051,59.599474 235.076553,60.2523657 235.076553,61.108646 C235.076553,62.5630866 236.530993,62.8483956 237.700125,62.2777775 L238.298285,61.9924685 L238.774271,63.0256545 L236.476615,64.1534727 C235.144349,64.8060113 234.519352,65.3229574 234.519352,66.0164562 C234.519352,66.7643331 235.144349,67.3211802 236.93883,67.3211802 C237.98614,67.3211802 239.032391,67.1449806 239.032391,67.1449806 L239.114664,68.2735051 C239.114664,68.2735051 237.917991,68.4903117 236.776048,68.4903117 C234.083974,68.4903117 232.996409,67.4295835 232.996409,66.1524017" id="Fill-51" fill="#000713" mask="url(#mask-2)"></path>
                    <path d="M241.005508,56.5681359 C240.692657,56.5137576 240.339551,56.4593794 239.985387,56.4321903 L239.985387,55.5211787 C240.773871,55.4396114 241.576126,55.3852332 242.500556,55.4124223 L242.500556,65.0098236 L241.005508,65.0098236 L241.005508,56.5681359 Z" id="Fill-52" fill="#000713" mask="url(#mask-2)"></path>
                    <path d="M244.432006,63.8276625 L248.646318,63.8276625 C248.578521,61.5434245 247.59936,60.2252825 245.315476,59.5861619 L245.681999,58.3358162 C248.52379,59.1511362 249.992002,60.7009153 250.100405,63.8276625 L250.957039,63.8276625 L250.957039,65.009859 L244.432006,65.009859 L244.432006,63.8276625 Z" id="Fill-53" fill="#000713" mask="url(#mask-2)"></path>
                    <polygon id="Fill-54" fill="#000713" mask="url(#mask-2)" points="250.753826 65.009859 252.452969 65.009859 252.452969 63.8276625 250.753826 63.8276625"></polygon>
                    <polygon id="Fill-55" fill="#000713" mask="url(#mask-2)" points="252.249227 65.009859 253.948017 65.009859 253.948017 63.8276625 252.249227 63.8276625"></polygon>
                    <polygon id="Fill-56" fill="#000713" mask="url(#mask-2)" points="253.744981 65.009859 255.443771 65.009859 255.443771 63.8276625 253.744981 63.8276625"></polygon>
                    <polygon id="Fill-57" fill="#000713" mask="url(#mask-2)" points="255.240029 65.009859 256.939172 65.009859 256.939172 63.8276625 255.240029 63.8276625"></polygon>
                    <polygon id="Fill-58" fill="#000713" mask="url(#mask-2)" points="256.73543 65.009859 258.434572 65.009859 258.434572 63.8276625 256.73543 63.8276625"></polygon>
                    <polygon id="Fill-59" fill="#000713" mask="url(#mask-2)" points="258.231184 65.009859 259.930326 65.009859 259.930326 63.8276625 258.231184 63.8276625"></polygon>
                    <polygon id="Fill-60" fill="#000713" mask="url(#mask-2)" points="259.726231 65.009859 261.425374 65.009859 261.425374 63.8276625 259.726231 63.8276625"></polygon>
                    <polygon id="Fill-61" fill="#000713" mask="url(#mask-2)" points="261.221632 65.009859 262.920775 65.009859 262.920775 63.8276625 261.221632 63.8276625"></polygon>
                    <polygon id="Fill-62" fill="#000713" mask="url(#mask-2)" points="262.717386 65.009859 264.416529 65.009859 264.416529 63.8276625 262.717386 63.8276625"></polygon>
                    <polygon id="Fill-63" fill="#000713" mask="url(#mask-2)" points="264.212434 65.009859 265.911577 65.009859 265.911577 63.8276625 264.212434 63.8276625"></polygon>
                    <polygon id="Fill-64" fill="#000713" mask="url(#mask-2)" points="265.707482 65.009859 267.406624 65.009859 267.406624 63.8276625 265.707482 63.8276625"></polygon>
                    <polygon id="Fill-65" fill="#000713" mask="url(#mask-2)" points="267.203589 65.009859 268.902731 65.009859 268.902731 63.8276625 267.203589 63.8276625"></polygon>
                    <polygon id="Fill-66" fill="#000713" mask="url(#mask-2)" points="268.69899 65.009859 270.398132 65.009859 270.398132 63.8276625 268.69899 63.8276625"></polygon>
                    <polygon id="Fill-67" fill="#000713" mask="url(#mask-2)" points="270.194037 65.009859 271.89318 65.009859 271.89318 63.8276625 270.194037 63.8276625"></polygon>
                    <polygon id="Fill-68" fill="#000713" mask="url(#mask-2)" points="271.689791 65.009859 273.388934 65.009859 273.388934 63.8276625 271.689791 63.8276625"></polygon>
                    <path d="M275.659365,66.0845349 L275.659365,66.0845349 C276.12158,66.0845349 276.475039,66.4242221 276.475039,66.900208 C276.475039,67.3617166 276.12158,67.7155281 275.659365,67.7155281 C275.197151,67.7155281 274.843692,67.3617166 274.843692,66.900208 C274.843692,66.4376401 275.197151,66.0845349 275.659365,66.0845349 L275.659365,66.0845349 Z M273.185157,65.0096824 C272.913266,65.0096824 272.369484,64.7932289 272.369484,64.4125814 C272.369484,64.0584168 272.913266,63.8274859 273.185157,63.8274859 L274.993056,63.8274859 L274.993056,58.6209487 L276.475039,58.6209487 L276.475039,65.0096824 L273.185157,65.0096824 Z" id="Fill-69" fill="#000713" mask="url(#mask-2)"></path>
                    <path d="M286.14119,65.009859 L286.14119,65.009859 C284.849884,65.009859 284.25137,64.7520921 283.762319,64.3167133 C283.218184,64.8202414 282.402158,65.1599287 280.988677,65.1599287 C280.350263,65.1599287 279.316371,65.0508192 278.759524,64.8880376 L278.963266,63.6507568 C279.533884,63.8410805 280.363681,63.990444 281.111205,63.990444 C282.497849,63.990444 283.218184,63.4734979 283.218184,61.897236 L283.218184,55.4262287 L284.713938,55.4262287 L284.713938,61.6115738 C284.713938,62.9032329 284.496778,63.3650946 284.496778,63.3650946 C284.496778,63.3650946 284.931098,63.8276625 286.14119,63.8276625 L286.318095,63.8276625 L286.318095,65.009859 L286.14119,65.009859 Z M278.255996,67.6334311 L278.255996,67.6334311 C278.542011,67.6334311 278.82732,67.6609734 279.031062,67.7015805 C278.895116,67.6207194 278.759524,67.4572316 278.759524,67.1719226 C278.759524,66.505966 279.330142,65.9208706 280.499627,65.9208706 C280.812478,65.9208706 281.097787,65.9614777 281.24715,66.0024379 L281.097787,66.8456533 C280.961841,66.8053993 280.716786,66.764086 280.418059,66.764086 C280.010576,66.764086 279.792357,66.9409917 279.792357,67.1853406 C279.792357,67.4706496 280.050477,67.6334311 280.68995,67.6334311 L281.519042,67.6334311 L281.519042,68.4773528 L278.255996,68.4773528 L278.255996,67.6334311 Z M280.68995,62.6994911 C280.200193,62.8216656 279.724207,62.8894618 279.194196,62.9297158 L279.194196,56.5544001 C278.895116,56.4862507 278.527887,56.4456436 278.161363,56.4184545 L278.161363,55.507796 C278.922305,55.4124576 279.901466,55.3584325 280.68995,55.3990396 L280.68995,62.6994911 Z" id="Fill-70" fill="#000713" mask="url(#mask-2)"></path>
                    <path d="M286.114954,65.009859 C285.843063,65.009859 285.299281,64.7934054 285.299281,64.4124048 C285.299281,64.0582402 285.843063,63.8276625 286.114954,63.8276625 L287.922853,63.8276625 L287.922853,55.4262287 L289.404836,55.4262287 L289.404836,65.009859 L286.114954,65.009859 Z" id="Fill-71" fill="#000713" mask="url(#mask-2)"></path>
                    <path d="M233.716568,86.3339218 L233.85216,85.1231238 C234.219036,85.2463575 234.626873,85.3413429 235.102506,85.3413429 C236.136045,85.3413429 236.761394,84.8388741 236.761394,83.1926973 L236.761394,76.641182 L238.243024,76.641182 L238.243024,83.0853533 C238.243024,84.9335063 237.590839,86.5108275 235.007874,86.5108275 C234.532241,86.5108275 234.083091,86.4430313 233.716568,86.3339218" id="Fill-72" fill="#000713" mask="url(#mask-2)"></path>
                    <path d="M240.908439,74.5885457 C240.595588,74.5331082 240.242483,74.4794362 239.888318,74.4526002 L239.888318,73.5405293 C240.676802,73.4600213 241.479057,73.4045837 242.40384,73.432126 L242.40384,81.847684 L244.007644,81.847684 L244.007644,83.0298804 L240.908439,83.0298804 L240.908439,74.5885457 Z" id="Fill-73" fill="#000713" mask="url(#mask-2)"></path>
                    <path d="M243.804503,83.029951 C243.532612,83.029951 242.989183,82.8134975 242.989183,82.4324969 C242.989183,82.0783323 243.532612,81.8474015 243.804503,81.8474015 L247.760694,81.8474015 C247.705963,79.4279241 246.591916,78.1634542 244.307325,77.5645876 L244.307325,76.4643116 L249.568593,73.1740766 L249.568593,74.6564126 L246.034009,76.804352 C247.924182,77.619672 249.119796,79.0327993 249.215488,81.8474015 L250.153336,81.8474015 L250.153336,83.029951 L243.804503,83.029951 Z" id="Fill-74" fill="#000713" mask="url(#mask-2)"></path>
                    <path d="M249.977136,83.029951 C249.705245,83.029951 249.161816,82.8134975 249.161816,82.4324969 C249.161816,82.0783323 249.705245,81.8474015 249.977136,81.8474015 L250.467246,81.8474015 L250.467246,83.029951 L249.977136,83.029951 Z" id="Fill-75" fill="#000713" mask="url(#mask-2)"></path>
                    <path d="M253.824324,73.9894673 L253.824324,73.9894673 C254.246285,73.9894673 254.612808,74.3432788 254.612808,74.7783045 C254.612808,75.1999122 254.259703,75.5667886 253.824324,75.5667886 C253.37588,75.5667886 253.036193,75.212624 253.036193,74.7783045 C253.036193,74.3570499 253.389651,73.9894673 253.824324,73.9894673 L253.824324,73.9894673 Z M251.758305,73.9894673 L251.758305,73.9894673 C252.206396,73.9894673 252.546436,74.3291546 252.546436,74.7783045 C252.546436,75.212624 252.206396,75.5667886 251.758305,75.5667886 C251.309861,75.5667886 250.983239,75.212624 250.983239,74.7783045 C250.983239,74.3570499 251.322926,73.9894673 251.758305,73.9894673 L251.758305,73.9894673 Z M250.249133,83.0300217 C249.977242,83.0300217 249.43346,82.813215 249.43346,82.4325675 C249.43346,82.078403 249.977242,81.8474721 250.249133,81.8474721 L252.057385,81.8474721 L252.057385,76.6412879 L253.539015,76.6412879 L253.539015,81.8474721 L255.143172,81.8474721 L255.143172,83.0300217 L250.249133,83.0300217 Z" id="Fill-76" fill="#000713" mask="url(#mask-2)"></path>
                    <polygon id="Fill-77" fill="#000713" mask="url(#mask-2)" points="254.939889 83.0302335 256.639032 83.0302335 256.639032 81.847684 254.939889 81.847684"></polygon>
                    <polygon id="Fill-78" fill="#000713" mask="url(#mask-2)" points="256.434937 83.0302335 258.13408 83.0302335 258.13408 81.847684 256.434937 81.847684"></polygon>
                    <polygon id="Fill-79" fill="#000713" mask="url(#mask-2)" points="257.930338 83.0302335 259.629481 83.0302335 259.629481 81.847684 257.930338 81.847684"></polygon>
                    <polygon id="Fill-80" fill="#000713" mask="url(#mask-2)" points="259.426092 83.0302335 261.125235 83.0302335 261.125235 81.847684 259.426092 81.847684"></polygon>
                    <polygon id="Fill-81" fill="#000713" mask="url(#mask-2)" points="260.92114 83.0302335 262.620282 83.0302335 262.620282 81.847684 260.92114 81.847684"></polygon>
                    <polygon id="Fill-82" fill="#000713" mask="url(#mask-2)" points="262.416541 83.0302335 264.115683 83.0302335 264.115683 81.847684 262.416541 81.847684"></polygon>
                    <polygon id="Fill-83" fill="#000713" mask="url(#mask-2)" points="263.912294 83.0302335 265.611437 83.0302335 265.611437 81.847684 263.912294 81.847684"></polygon>
                    <path d="M267.881763,84.1038501 L267.881763,84.1038501 C268.344331,84.1038501 268.697436,84.4438905 268.697436,84.9195233 C268.697436,85.3824443 268.344331,85.7348434 267.881763,85.7348434 C267.419548,85.7348434 267.066443,85.3824443 267.066443,84.9195233 C267.066443,84.4576616 267.419548,84.1038501 267.881763,84.1038501 L267.881763,84.1038501 Z M265.407554,83.030057 C265.135663,83.030057 264.591881,82.8132503 264.591881,82.4322497 C264.591881,82.0784383 265.135663,81.8475074 265.407554,81.8475074 L267.215453,81.8475074 L267.215453,76.6413232 L268.697436,76.6413232 L268.697436,83.030057 L265.407554,83.030057 Z" id="Fill-84" fill="#000713" mask="url(#mask-2)"></path>
                    <path d="M270.981815,82.908165 L270.981815,82.908165 L271.185557,81.670531 C271.756528,81.8619141 272.586326,82.0105714 273.333849,82.0105714 C274.720847,82.0105714 275.440475,81.4936253 275.440475,79.916304 L275.440475,73.4456499 L276.936583,73.4456499 L276.936583,79.7676467 C276.936583,81.8206008 275.944004,83.1800561 273.211322,83.1800561 C272.572554,83.1800561 271.539015,83.0709466 270.981815,82.908165 L270.981815,82.908165 Z M272.912595,80.7192654 C272.422485,80.8410868 271.946852,80.908883 271.416488,80.9498432 L271.416488,74.5741743 C271.117761,74.5063781 270.750178,74.4650648 270.383655,74.4382288 L270.383655,73.5279234 C271.14495,73.4322319 272.123758,73.3778537 272.912595,73.4188139 L272.912595,80.7192654 Z" id="Fill-85" fill="#000713" mask="url(#mask-2)"></path>
                    <path d="M279.602033,74.5885457 C279.289182,74.5331082 278.935723,74.4794362 278.581559,74.4526002 L278.581559,73.5405293 C279.370396,73.4600213 280.172298,73.4045837 281.097081,73.432126 L281.097081,83.0298804 L279.602033,83.0298804 L279.602033,74.5885457 Z" id="Fill-86" fill="#000713" mask="url(#mask-2)"></path>
                    <path d="M287.962683,77.945447 L287.962683,77.945447 C287.962683,77.945447 287.364523,77.6608441 286.467635,77.6608441 C285.325693,77.6608441 284.632547,78.5033533 284.632547,79.7268631 C284.632547,81.1269255 285.298151,81.8476133 286.901955,81.8476133 L287.962683,81.8476133 L287.962683,77.945447 Z M283.218008,86.2660196 L283.327117,85.0283857 C283.327117,85.0283857 284.428099,85.2875649 285.474703,85.2875649 C286.916432,85.2875649 287.962683,84.7437828 287.962683,83.3017009 L287.962683,83.0298098 L286.726108,83.0298098 C284.102183,83.0298098 283.123022,81.8066531 283.123022,79.8628086 C283.123022,78.0813925 284.224004,76.4772352 286.616999,76.4772352 C288.180549,76.4772352 289.417477,76.952868 289.417477,76.952868 L289.417477,83.1925913 C289.417477,84.9065643 288.288952,86.4697614 285.325693,86.4697614 C284.291801,86.4697614 283.218008,86.2660196 283.218008,86.2660196 L283.218008,86.2660196 Z" id="Fill-87" fill="#000713" mask="url(#mask-2)"></path>
                    <path d="M149.895131,21.3966966 L149.895131,18.6806108 L152.480568,16.6174167 C154.935709,14.6326119 155.980547,13.770682 155.980547,12.5171582 C155.980547,11.3681537 155.196654,10.5584833 153.681832,10.5584833 C152.55931,10.5584833 151.305434,11.0549493 150.573799,11.4988026 L150.103816,8.67819771 C151.305434,8.12982522 152.794125,7.73787836 154.465726,7.73787836 C157.860833,7.73787836 159.662729,9.40912562 159.662729,11.8903964 C159.662729,13.8229416 158.434982,15.3642461 156.372141,17.0093635 L154.465726,18.5238321 L154.439243,18.550315 C155.849898,18.4457958 157.887316,18.4457958 160.158842,18.4457958 L160.158842,21.3966966 L149.895131,21.3966966 Z" id="Fill-88" fill="#000713" mask="url(#mask-2)"></path>
                    <path d="M154.920772,3.10923318 L154.920772,3.10923318 C148.579355,3.10923318 143.422252,8.26845435 143.422252,14.6081064 C143.422252,20.9498772 148.579355,26.1069797 154.920772,26.1069797 C161.263249,26.1069797 166.419999,20.9498772 166.419999,14.6081064 C166.419999,8.26845435 161.263249,3.10923318 154.920772,3.10923318 M154.920772,29.0087988 C146.978376,29.0087988 140.522552,22.5508565 140.522552,14.6081064 C140.522552,6.66994677 146.978376,0.20953267 154.920772,0.20953267 C162.858932,0.20953267 169.318993,6.66994677 169.318993,14.6081064 C169.318993,22.5508565 162.858932,29.0087988 154.920772,29.0087988" id="Fill-89" fill="#000713" mask="url(#mask-2)"></path>
                    <path d="M111.55775,8.94486281 C114.530543,8.44627816 118.746267,7.95263699 122.33417,7.7054633 L122.33417,1.14088314 L89.4501818,1.14088314 L89.4501818,7.7054633 C93.0423217,7.95263699 97.2545145,8.44627816 100.226955,8.94486281 L100.226955,75.0853649 C97.2545145,75.5846557 93.0423217,76.0779438 89.4501818,76.3251175 L89.4501818,82.8896976 L122.33417,82.8896976 L122.33417,76.3251175 C118.746267,76.0779438 114.530543,75.5846557 111.55775,75.0853649 L111.55775,8.94486281 Z" id="Fill-90" fill="#000713" mask="url(#mask-2)"></path>
                    <path d="M79.6153524,1.14331957 L69.6203545,1.14331957 L47.0611648,1.14331957 L46.9817161,30.9828339 L22.5591898,30.9828339 L22.5591898,1.14331957 L0,1.14331957 L0,83.0199582 L22.5591898,83.0199582 L22.5591898,50.756023 L46.9817161,50.756023 L46.9817161,83.0199582 L69.0620951,83.0199582 L69.6203545,83.0199582 L69.6203545,16.7025504 C72.48651,16.2477508 76.3113464,15.8077816 79.6153524,15.5796756 L79.6153524,1.14331957 Z" id="Fill-91" fill="#000713" mask="url(#mask-2)"></path>
                </g>
            </g>
        </g>
    </g>
</svg>